inDegrees=no
num_controls=7
num_derivatives=13
num_iterations=66
num_multipliers=7
num_parameters=0
num_slacks=7
num_states=26
objective=0.509603
objective_accelerations=0.041015
objective_balance=0.002919
objective_effort=0.030183
objective_height=0.323279
objective_ligament=0.112206
solver_duration=961.827392
status=Solve_Succeeded
success=true
DataType=double
version=3
OpenSimVersion=4.5
endheader
time	/jointset/ground_pelvis/pelvis_tilt/value	/jointset/ground_pelvis/pelvis_tx/value	/jointset/ground_pelvis/pelvis_ty/value	/jointset/hip_l/hip_flexion_l/value	/jointset/hip_l/hip_adduction_l/value	/jointset/hip_l/hip_rotation_l/value	/jointset/back/lumbar_extension/value	/jointset/patellofemoral_l/patellar_flexion_l/value	/jointset/knee_l/knee_flexion_l/value	/jointset/knee_l/knee_adduction_l/value	/jointset/knee_l/knee_rotation_l/value	/jointset/ankle_l/ankle_angle_l/value	/jointset/subtalar_l/subtalar_angle_l/value	/jointset/ground_pelvis/pelvis_tilt/speed	/jointset/ground_pelvis/pelvis_tx/speed	/jointset/ground_pelvis/pelvis_ty/speed	/jointset/hip_l/hip_flexion_l/speed	/jointset/hip_l/hip_adduction_l/speed	/jointset/hip_l/hip_rotation_l/speed	/jointset/back/lumbar_extension/speed	/jointset/patellofemoral_l/patellar_flexion_l/speed	/jointset/knee_l/knee_flexion_l/speed	/jointset/knee_l/knee_adduction_l/speed	/jointset/knee_l/knee_rotation_l/speed	/jointset/ankle_l/ankle_angle_l/speed	/jointset/subtalar_l/subtalar_angle_l/speed	/forceset/tau_hip_flexion_l	/forceset/tau_hip_adduction_l	/forceset/tau_hip_rotation_l	/forceset/tau_knee_flexion_l	/forceset/tau_ankle_angle_l	/forceset/tau_subtalar_angle_l	/forceset/tau_lumbar_extension	lambda_cid13_p0	lambda_cid13_p1	lambda_cid13_p2	lambda_cid13_p3	lambda_cid13_p4	lambda_cid13_p5	lambda_cid14_p0	/jointset/ground_pelvis/pelvis_tilt/accel	/jointset/ground_pelvis/pelvis_tx/accel	/jointset/ground_pelvis/pelvis_ty/accel	/jointset/hip_l/hip_flexion_l/accel	/jointset/hip_l/hip_adduction_l/accel	/jointset/hip_l/hip_rotation_l/accel	/jointset/back/lumbar_extension/accel	/jointset/patellofemoral_l/patellar_flexion_l/accel	/jointset/knee_l/knee_flexion_l/accel	/jointset/knee_l/knee_adduction_l/accel	/jointset/knee_l/knee_rotation_l/accel	/jointset/ankle_l/ankle_angle_l/accel	/jointset/subtalar_l/subtalar_angle_l/accel	gamma_cid13_p0	gamma_cid13_p1	gamma_cid13_p2	gamma_cid13_p3	gamma_cid13_p4	gamma_cid13_p5	gamma_cid14_p0
1.5	0.008945910190172421	-0.009489596209454186	0.8719630803779543	0.6006160364654347	-0.2985829308567033	-0.1868197102921019	-0.7899261277100592	0.6632053939261425	0.6632053939261245	-0.06778096798669313	-0.1708775059766198	0.1121763110343345	0.03675973039394942	0.3817776532696109	0.1971090455217745	0.3456023527345624	-1.79664405133855	0.1848946545649253	-0.6345042122326296	0.8400647141907885	-1.76492206443945	-1.764922064439446	0.05399910032666963	-0.01657416407638225	-0.4044321047742894	0.06333659506931102	-0.2041598364074468	0.08644498856531599	-0.00834621875812782	-0.176599870960672	0.06628264397318909	-0.002663190510891754	0.2831866544975813	-22.7632617353294	4.068913755438755	0.1230683712397905	-3.995192104385343	-672.0773533210956	-29.73834014632862	-19.13983386661144	0.1279813006977531	0.6053382668908389	-0.5375827681620531	-0.4569895859343742	0.5631465816994041	0.1148050936102748	1.977386146178226	-0.3025282842256412	-0.302528284225644	-0.06873881191459841	0.002261576578863039	0.2818134826358865	0.6712333709362215	2.012293548612321e-07	7.863654844304715e-07	-9.325571097556717e-07	4.691280443722199e-08	1.957083669126584e-07	4.064818830651878e-07	2.07584225526765e-07
1.51	0.01276971439727605	-0.007488366349182853	0.8753916668093132	0.5826283074641481	-0.2967070138996075	-0.1931581181781664	-0.781427899652711	0.6455429247956048	0.645542924795602	-0.06724664090110608	-0.1710439428727552	0.1081464132257636	0.03742535695883628	0.3829298109997987	0.2031210917092093	0.3400575110984416	-1.800684669514992	0.1902521961835343	-0.6330911220797524	0.859469752374339	-1.767345291585679	-1.767345291585668	0.05282296243675064	-0.01670921768523596	-0.4014768032255254	0.06976727397489703	-0.1963769105373195	0.08466789556725925	-0.008319508389709606	-0.1750589372762926	0.06913263880902176	-0.003582491601103052	0.2760897262814689	-21.69337466111031	4.198316420339704	0.1966956384422773	-4.266293805970366	-668.5253875765372	-30.01763077380518	-19.69097746459439	0.1008465804020887	0.5967728199304063	-0.5715064722280143	-0.3450136565708614	0.5165981322034382	0.1677030055828935	1.905390919049315	-0.1782913410261368	-0.1782913410252448	-0.148461259047143	-0.02097429135979557	0.3130171603978941	0.6257468061043808	2.008916901068943e-07	8.122885155113239e-07	-9.341641637279742e-07	4.977142885219233e-08	2.043320206759152e-07	4.25673455144836e-07	2.08925625410467e-07
1.52	0.01660344289592856	-0.005427489021985363	0.8787630905021333	0.5646066891364908	-0.2947786134902814	-0.199479766756798	-0.7727389555606035	0.6278630091113698	0.6278630091113673	-0.06672535719072828	-0.1712116473973253	0.1041481941665602	0.03815464264392543	0.3837625115788886	0.2090385389070062	0.3341698050267601	-1.803421916614311	0.1953913450126134	-0.6311523507486123	0.8782079211421284	-1.768411375180087	-1.76841137518007	0.05139042528616764	-0.01682768976378621	-0.3980963549007091	0.07606841910987007	-0.1885939846671333	0.08289080256922721	-0.008292798021387542	-0.1735180035918868	0.07198263364486758	-0.004501792691280095	0.2689927980653937	-20.62593250779705	4.327652953247044	0.2708988982734958	-4.573876149632068	-665.0302093701853	-30.34317858399539	-20.21679705484385	0.06408987047826332	0.5864184689632701	-0.6061556552741946	-0.1963153705097889	0.5194680237934446	0.219941329262761	1.844012263026147	-0.03109957386146381	-0.03109957386146383	-0.1200186640472853	0.005577882639546802	0.3668428378463218	0.6453266168136756	2.000429611115061e-07	8.335711668897238e-07	-9.346087929686935e-07	5.18135057498673e-08	2.131689971783056e-07	4.428461494206288e-07	2.095626362178079e-07
1.53	0.02044388196894754	-0.003307997804556667	0.8820739732350839	0.5465642271355083	-0.2928000424784289	-0.2057793266127149	-0.7638662480815228	0.6101791784796702	0.6101791784796807	-0.06621989554380252	-0.1713803676765891	0.1001857836734181	0.03894612332365803	0.3842692263014741	0.2148345211828374	0.3279538642106455	-1.804846203039972	0.2002733869289103	-0.62866045386194	0.8961938803069557	-1.768126400669661	-1.76812640066968	0.04963877137860568	-0.01690289107269129	-0.3943253152227046	0.08218958988159093	-0.1804725253369961	0.08082310927914385	-0.008265558698786361	-0.1723313830941923	0.07504926487847847	-0.005532158657413175	0.2615765004101492	-19.50270294798514	4.50266213604345	0.3295897325974184	-4.793771242327423	-661.5813217924734	-30.65267343382968	-20.71396371661974	0.03556953214459276	0.5724213207829948	-0.6371994806899579	-0.08182201101116866	0.4651652725779269	0.2788962411051821	1.754933588455712	0.0925066584268055	0.09250665842129682	-0.2121132265721813	-0.01223355043084308	0.3913298842490632	0.5897661837833118	1.986512263600019e-07	8.49923414834268e-07	-9.338183459321058e-07	5.298800091041594e-08	2.222326290910254e-07	4.578737860298253e-07	2.094512336315151e-07
1.54	0.02428770964099423	-0.001131300121591979	0.8853211193226918	0.5285142549237954	-0.2907741324480142	-0.2120509510252045	-0.7548178718417425	0.59250503973207	0.5925050397320731	-0.06573382533045657	-0.1715494728514916	0.09626290264734989	0.03979766648639393	0.3844402313838832	0.2204798320142047	0.3214224759582031	-1.804923958762319	0.2048591487264056	-0.6255652620658324	0.9133416732815736	-1.766472998361945	-1.766472998362	0.04751213857258361	-0.01690466889261307	-0.3901904614858355	0.08808091571059595	-0.172351066006789	0.07875541598909605	-0.008238319376323496	-0.1711447625964662	0.07811589611210706	-0.006562524623497625	0.2541602027549464	-18.38193191374435	4.678329343218637	0.387916701453818	-5.048887477417406	-658.1878592496798	-31.00639121532549	-21.17920558615895	-0.00305205755692604	0.5562841800704594	-0.6692451425397706	0.07299077015289955	0.4602120000331756	0.3406003111497163	1.676379024984387	0.2425859855963803	0.2425859855963801	-0.195014443739197	0.0202625804361974	0.4396056496192114	0.5993576282705472	1.971233081507369e-07	8.597828431170383e-07	-9.296155827059358e-07	5.303454497450542e-08	2.322320196492323e-07	4.699340836398421e-07	2.084242851068961e-07
